<svg xmlns="http://www.w3.org/2000/svg">
  <defs>
    <symbol id="reset" viewBox="0 0 256 256">
      <title>Reset</title>
     <g style="stroke:none;stroke-width:0;stroke-dasharray:none;stroke-linecap:butt;stroke-linejoin:miter;stroke-miterlimit:10;fill:none;fill-rule:nonzero;opacity:1">
    <path  d="M75.702 53.014c-2.142 7.995-7.27 14.678-14.439 18.816-7.168 4.138-15.519 5.239-23.514 3.095-16.505-4.423-26.335-21.448-21.913-37.953C20.258 20.467 37.286 10.64 53.79 15.06c4.213 1.129 8.076 3.118 11.413 5.809l-8.349 8.35h26.654V2.565l-8.354 8.354c-5.1-4.405-11.133-7.61-17.74-9.381-23.963-6.42-48.679 7.851-55.1 31.812-6.42 23.961 7.851 48.678 31.811 55.098C38.001 89.486 41.934 90 45.842 90c7.795 0 15.488-2.044 22.42-6.046 10.407-6.008 17.851-15.709 20.962-27.317l-13.522-3.623z" style="stroke:none;stroke-width:1;stroke-dasharray:none;stroke-linecap:butt;stroke-linejoin:miter;stroke-miterlimit:10;fill-rule:nonzero;opacity:1" transform="matrix(2.81 0 0 2.81 1.4066 1.4066)" fill="white"/>
  </g>
    </symbol>

  </defs>
</svg>